<?xml version="1.0" encoding="utf-8" standalone="no"?>
<!DOCTYPE svg PUBLIC "-//W3C//DTD SVG 1.1//EN"
  "http://www.w3.org/Graphics/SVG/1.1/DTD/svg11.dtd">
<svg xmlns:xlink="http://www.w3.org/1999/xlink" width="720pt" height="576pt" viewBox="0 0 720 576" xmlns="http://www.w3.org/2000/svg" version="1.1">
 <metadata>
  <rdf:RDF xmlns:dc="http://purl.org/dc/elements/1.1/" xmlns:cc="http://creativecommons.org/ns#" xmlns:rdf="http://www.w3.org/1999/02/22-rdf-syntax-ns#">
   <cc:Work>
    <dc:type rdf:resource="http://purl.org/dc/dcmitype/StillImage"/>
    <dc:date>2022-08-10T21:02:11.402150</dc:date>
    <dc:format>image/svg+xml</dc:format>
    <dc:creator>
     <cc:Agent>
      <dc:title>Matplotlib v3.5.2, https://matplotlib.org/</dc:title>
     </cc:Agent>
    </dc:creator>
   </cc:Work>
  </rdf:RDF>
 </metadata>
 <defs>
  <style type="text/css">*{stroke-linejoin: round; stroke-linecap: butt}</style>
 </defs>
 <g id="figure_1">
  <g id="patch_1">
   <path d="M 0 576 
L 720 576 
L 720 0 
L 0 0 
z
" style="fill: #ffffff"/>
  </g>
  <g id="axes_1">
   <g id="patch_2">
    <path d="M 86.76 499.86 
L 687.894618 499.86 
L 687.894618 86.74 
L 86.76 86.74 
z
" style="fill: #f4f4f9"/>
   </g>
   <g id="axes_2">
    <g id="patch_3">
     <path d="M 86.76 86.74 
L 687.894618 86.74 
L 687.894618 86.74 
L 86.76 86.74 
z
" style="fill: #f4f4f9"/>
    </g>
    <g id="matplotlib.axis_1">
     <g id="xtick_1">
      <g id="line2d_1">
       <path d="M 220.931748 86.74 
L 220.931748 86.74 
" clip-path="url(#p1b01161374)" style="fill: none; stroke: #cccccc; stroke-linecap: round"/>
      </g>
      <g id="line2d_2">
       <defs>
        <path id="mab999efe94" d="M 0 0 
L 0 -6 
" style="stroke: #262626; stroke-width: 1.25"/>
       </defs>
       <g>
        <use xlink:href="#mab999efe94" x="220.931748" y="86.74" style="fill: #262626; stroke: #262626; stroke-width: 1.25"/>
       </g>
      </g>
      <g id="text_1">
       <!-- $\mathdefault{10^{-20}}$ -->
       <g style="fill: #262626" transform="translate(190.241748 72.664688)scale(0.22 -0.22)">
        <defs>
         <path id="DejaVuSans-31" d="M 794 531 
L 1825 531 
L 1825 4091 
L 703 3866 
L 703 4441 
L 1819 4666 
L 2450 4666 
L 2450 531 
L 3481 531 
L 3481 0 
L 794 0 
L 794 531 
z
" transform="scale(0.015625)"/>
         <path id="DejaVuSans-30" d="M 2034 4250 
Q 1547 4250 1301 3770 
Q 1056 3291 1056 2328 
Q 1056 1369 1301 889 
Q 1547 409 2034 409 
Q 2525 409 2770 889 
Q 3016 1369 3016 2328 
Q 3016 3291 2770 3770 
Q 2525 4250 2034 4250 
z
M 2034 4750 
Q 2819 4750 3233 4129 
Q 3647 3509 3647 2328 
Q 3647 1150 3233 529 
Q 2819 -91 2034 -91 
Q 1250 -91 836 529 
Q 422 1150 422 2328 
Q 422 3509 836 4129 
Q 1250 4750 2034 4750 
z
" transform="scale(0.015625)"/>
         <path id="DejaVuSans-2212" d="M 678 2272 
L 4684 2272 
L 4684 1741 
L 678 1741 
L 678 2272 
z
" transform="scale(0.015625)"/>
         <path id="DejaVuSans-32" d="M 1228 531 
L 3431 531 
L 3431 0 
L 469 0 
L 469 531 
Q 828 903 1448 1529 
Q 2069 2156 2228 2338 
Q 2531 2678 2651 2914 
Q 2772 3150 2772 3378 
Q 2772 3750 2511 3984 
Q 2250 4219 1831 4219 
Q 1534 4219 1204 4116 
Q 875 4013 500 3803 
L 500 4441 
Q 881 4594 1212 4672 
Q 1544 4750 1819 4750 
Q 2544 4750 2975 4387 
Q 3406 4025 3406 3419 
Q 3406 3131 3298 2873 
Q 3191 2616 2906 2266 
Q 2828 2175 2409 1742 
Q 1991 1309 1228 531 
z
" transform="scale(0.015625)"/>
        </defs>
        <use xlink:href="#DejaVuSans-31" transform="translate(0 0.765625)"/>
        <use xlink:href="#DejaVuSans-30" transform="translate(63.623047 0.765625)"/>
        <use xlink:href="#DejaVuSans-2212" transform="translate(128.203125 39.046875)scale(0.7)"/>
        <use xlink:href="#DejaVuSans-32" transform="translate(186.855469 39.046875)scale(0.7)"/>
        <use xlink:href="#DejaVuSans-30" transform="translate(231.391602 39.046875)scale(0.7)"/>
       </g>
      </g>
     </g>
     <g id="xtick_2">
      <g id="line2d_3">
       <path d="M 371.215403 86.74 
L 371.215403 86.74 
" clip-path="url(#p1b01161374)" style="fill: none; stroke: #cccccc; stroke-linecap: round"/>
      </g>
      <g id="line2d_4">
       <g>
        <use xlink:href="#mab999efe94" x="371.215403" y="86.74" style="fill: #262626; stroke: #262626; stroke-width: 1.25"/>
       </g>
      </g>
      <g id="text_2">
       <!-- $\mathdefault{10^{-19}}$ -->
       <g style="fill: #262626" transform="translate(340.525403 72.664688)scale(0.22 -0.22)">
        <defs>
         <path id="DejaVuSans-39" d="M 703 97 
L 703 672 
Q 941 559 1184 500 
Q 1428 441 1663 441 
Q 2288 441 2617 861 
Q 2947 1281 2994 2138 
Q 2813 1869 2534 1725 
Q 2256 1581 1919 1581 
Q 1219 1581 811 2004 
Q 403 2428 403 3163 
Q 403 3881 828 4315 
Q 1253 4750 1959 4750 
Q 2769 4750 3195 4129 
Q 3622 3509 3622 2328 
Q 3622 1225 3098 567 
Q 2575 -91 1691 -91 
Q 1453 -91 1209 -44 
Q 966 3 703 97 
z
M 1959 2075 
Q 2384 2075 2632 2365 
Q 2881 2656 2881 3163 
Q 2881 3666 2632 3958 
Q 2384 4250 1959 4250 
Q 1534 4250 1286 3958 
Q 1038 3666 1038 3163 
Q 1038 2656 1286 2365 
Q 1534 2075 1959 2075 
z
" transform="scale(0.015625)"/>
        </defs>
        <use xlink:href="#DejaVuSans-31" transform="translate(0 0.765625)"/>
        <use xlink:href="#DejaVuSans-30" transform="translate(63.623047 0.765625)"/>
        <use xlink:href="#DejaVuSans-2212" transform="translate(128.203125 39.046875)scale(0.7)"/>
        <use xlink:href="#DejaVuSans-31" transform="translate(186.855469 39.046875)scale(0.7)"/>
        <use xlink:href="#DejaVuSans-39" transform="translate(231.391602 39.046875)scale(0.7)"/>
       </g>
      </g>
     </g>
     <g id="xtick_3">
      <g id="line2d_5">
       <path d="M 521.499058 86.74 
L 521.499058 86.74 
" clip-path="url(#p1b01161374)" style="fill: none; stroke: #cccccc; stroke-linecap: round"/>
      </g>
      <g id="line2d_6">
       <g>
        <use xlink:href="#mab999efe94" x="521.499058" y="86.74" style="fill: #262626; stroke: #262626; stroke-width: 1.25"/>
       </g>
      </g>
      <g id="text_3">
       <!-- $\mathdefault{10^{-18}}$ -->
       <g style="fill: #262626" transform="translate(490.809058 72.664688)scale(0.22 -0.22)">
        <defs>
         <path id="DejaVuSans-38" d="M 2034 2216 
Q 1584 2216 1326 1975 
Q 1069 1734 1069 1313 
Q 1069 891 1326 650 
Q 1584 409 2034 409 
Q 2484 409 2743 651 
Q 3003 894 3003 1313 
Q 3003 1734 2745 1975 
Q 2488 2216 2034 2216 
z
M 1403 2484 
Q 997 2584 770 2862 
Q 544 3141 544 3541 
Q 544 4100 942 4425 
Q 1341 4750 2034 4750 
Q 2731 4750 3128 4425 
Q 3525 4100 3525 3541 
Q 3525 3141 3298 2862 
Q 3072 2584 2669 2484 
Q 3125 2378 3379 2068 
Q 3634 1759 3634 1313 
Q 3634 634 3220 271 
Q 2806 -91 2034 -91 
Q 1263 -91 848 271 
Q 434 634 434 1313 
Q 434 1759 690 2068 
Q 947 2378 1403 2484 
z
M 1172 3481 
Q 1172 3119 1398 2916 
Q 1625 2713 2034 2713 
Q 2441 2713 2670 2916 
Q 2900 3119 2900 3481 
Q 2900 3844 2670 4047 
Q 2441 4250 2034 4250 
Q 1625 4250 1398 4047 
Q 1172 3844 1172 3481 
z
" transform="scale(0.015625)"/>
        </defs>
        <use xlink:href="#DejaVuSans-31" transform="translate(0 0.765625)"/>
        <use xlink:href="#DejaVuSans-30" transform="translate(63.623047 0.765625)"/>
        <use xlink:href="#DejaVuSans-2212" transform="translate(128.203125 39.046875)scale(0.7)"/>
        <use xlink:href="#DejaVuSans-31" transform="translate(186.855469 39.046875)scale(0.7)"/>
        <use xlink:href="#DejaVuSans-38" transform="translate(231.391602 39.046875)scale(0.7)"/>
       </g>
      </g>
     </g>
     <g id="xtick_4">
      <g id="line2d_7">
       <path d="M 671.782712 86.74 
L 671.782712 86.74 
" clip-path="url(#p1b01161374)" style="fill: none; stroke: #cccccc; stroke-linecap: round"/>
      </g>
      <g id="line2d_8">
       <g>
        <use xlink:href="#mab999efe94" x="671.782712" y="86.74" style="fill: #262626; stroke: #262626; stroke-width: 1.25"/>
       </g>
      </g>
      <g id="text_4">
       <!-- $\mathdefault{10^{-17}}$ -->
       <g style="fill: #262626" transform="translate(641.092712 72.664688)scale(0.22 -0.22)">
        <defs>
         <path id="DejaVuSans-37" d="M 525 4666 
L 3525 4666 
L 3525 4397 
L 1831 0 
L 1172 0 
L 2766 4134 
L 525 4134 
L 525 4666 
z
" transform="scale(0.015625)"/>
        </defs>
        <use xlink:href="#DejaVuSans-31" transform="translate(0 0.684375)"/>
        <use xlink:href="#DejaVuSans-30" transform="translate(63.623047 0.684375)"/>
        <use xlink:href="#DejaVuSans-2212" transform="translate(128.203125 38.965625)scale(0.7)"/>
        <use xlink:href="#DejaVuSans-31" transform="translate(186.855469 38.965625)scale(0.7)"/>
        <use xlink:href="#DejaVuSans-37" transform="translate(231.391602 38.965625)scale(0.7)"/>
       </g>
      </g>
     </g>
     <g id="xtick_5">
      <g id="line2d_9">
       <defs>
        <path id="m6e00c7c66b" d="M 0 0 
L 0 -4 
" style="stroke: #262626"/>
       </defs>
       <g>
        <use xlink:href="#m6e00c7c66b" x="115.887982" y="86.74" style="fill: #262626; stroke: #262626"/>
       </g>
      </g>
     </g>
     <g id="xtick_6">
      <g id="line2d_10">
       <g>
        <use xlink:href="#m6e00c7c66b" x="142.35162" y="86.74" style="fill: #262626; stroke: #262626"/>
       </g>
      </g>
     </g>
     <g id="xtick_7">
      <g id="line2d_11">
       <g>
        <use xlink:href="#m6e00c7c66b" x="161.12787" y="86.74" style="fill: #262626; stroke: #262626"/>
       </g>
      </g>
     </g>
     <g id="xtick_8">
      <g id="line2d_12">
       <g>
        <use xlink:href="#m6e00c7c66b" x="175.691861" y="86.74" style="fill: #262626; stroke: #262626"/>
       </g>
      </g>
     </g>
     <g id="xtick_9">
      <g id="line2d_13">
       <g>
        <use xlink:href="#m6e00c7c66b" x="187.591508" y="86.74" style="fill: #262626; stroke: #262626"/>
       </g>
      </g>
     </g>
     <g id="xtick_10">
      <g id="line2d_14">
       <g>
        <use xlink:href="#m6e00c7c66b" x="197.652516" y="86.74" style="fill: #262626; stroke: #262626"/>
       </g>
      </g>
     </g>
     <g id="xtick_11">
      <g id="line2d_15">
       <g>
        <use xlink:href="#m6e00c7c66b" x="206.367758" y="86.74" style="fill: #262626; stroke: #262626"/>
       </g>
      </g>
     </g>
     <g id="xtick_12">
      <g id="line2d_16">
       <g>
        <use xlink:href="#m6e00c7c66b" x="214.055146" y="86.74" style="fill: #262626; stroke: #262626"/>
       </g>
      </g>
     </g>
     <g id="xtick_13">
      <g id="line2d_17">
       <g>
        <use xlink:href="#m6e00c7c66b" x="266.171636" y="86.74" style="fill: #262626; stroke: #262626"/>
       </g>
      </g>
     </g>
     <g id="xtick_14">
      <g id="line2d_18">
       <g>
        <use xlink:href="#m6e00c7c66b" x="292.635274" y="86.74" style="fill: #262626; stroke: #262626"/>
       </g>
      </g>
     </g>
     <g id="xtick_15">
      <g id="line2d_19">
       <g>
        <use xlink:href="#m6e00c7c66b" x="311.411524" y="86.74" style="fill: #262626; stroke: #262626"/>
       </g>
      </g>
     </g>
     <g id="xtick_16">
      <g id="line2d_20">
       <g>
        <use xlink:href="#m6e00c7c66b" x="325.975515" y="86.74" style="fill: #262626; stroke: #262626"/>
       </g>
      </g>
     </g>
     <g id="xtick_17">
      <g id="line2d_21">
       <g>
        <use xlink:href="#m6e00c7c66b" x="337.875162" y="86.74" style="fill: #262626; stroke: #262626"/>
       </g>
      </g>
     </g>
     <g id="xtick_18">
      <g id="line2d_22">
       <g>
        <use xlink:href="#m6e00c7c66b" x="347.93617" y="86.74" style="fill: #262626; stroke: #262626"/>
       </g>
      </g>
     </g>
     <g id="xtick_19">
      <g id="line2d_23">
       <g>
        <use xlink:href="#m6e00c7c66b" x="356.651412" y="86.74" style="fill: #262626; stroke: #262626"/>
       </g>
      </g>
     </g>
     <g id="xtick_20">
      <g id="line2d_24">
       <g>
        <use xlink:href="#m6e00c7c66b" x="364.3388" y="86.74" style="fill: #262626; stroke: #262626"/>
       </g>
      </g>
     </g>
     <g id="xtick_21">
      <g id="line2d_25">
       <g>
        <use xlink:href="#m6e00c7c66b" x="416.455291" y="86.74" style="fill: #262626; stroke: #262626"/>
       </g>
      </g>
     </g>
     <g id="xtick_22">
      <g id="line2d_26">
       <g>
        <use xlink:href="#m6e00c7c66b" x="442.918929" y="86.74" style="fill: #262626; stroke: #262626"/>
       </g>
      </g>
     </g>
     <g id="xtick_23">
      <g id="line2d_27">
       <g>
        <use xlink:href="#m6e00c7c66b" x="461.695179" y="86.74" style="fill: #262626; stroke: #262626"/>
       </g>
      </g>
     </g>
     <g id="xtick_24">
      <g id="line2d_28">
       <g>
        <use xlink:href="#m6e00c7c66b" x="476.25917" y="86.74" style="fill: #262626; stroke: #262626"/>
       </g>
      </g>
     </g>
     <g id="xtick_25">
      <g id="line2d_29">
       <g>
        <use xlink:href="#m6e00c7c66b" x="488.158817" y="86.74" style="fill: #262626; stroke: #262626"/>
       </g>
      </g>
     </g>
     <g id="xtick_26">
      <g id="line2d_30">
       <g>
        <use xlink:href="#m6e00c7c66b" x="498.219825" y="86.74" style="fill: #262626; stroke: #262626"/>
       </g>
      </g>
     </g>
     <g id="xtick_27">
      <g id="line2d_31">
       <g>
        <use xlink:href="#m6e00c7c66b" x="506.935067" y="86.74" style="fill: #262626; stroke: #262626"/>
       </g>
      </g>
     </g>
     <g id="xtick_28">
      <g id="line2d_32">
       <g>
        <use xlink:href="#m6e00c7c66b" x="514.622455" y="86.74" style="fill: #262626; stroke: #262626"/>
       </g>
      </g>
     </g>
     <g id="xtick_29">
      <g id="line2d_33">
       <g>
        <use xlink:href="#m6e00c7c66b" x="566.738945" y="86.74" style="fill: #262626; stroke: #262626"/>
       </g>
      </g>
     </g>
     <g id="xtick_30">
      <g id="line2d_34">
       <g>
        <use xlink:href="#m6e00c7c66b" x="593.202583" y="86.74" style="fill: #262626; stroke: #262626"/>
       </g>
      </g>
     </g>
     <g id="xtick_31">
      <g id="line2d_35">
       <g>
        <use xlink:href="#m6e00c7c66b" x="611.978833" y="86.74" style="fill: #262626; stroke: #262626"/>
       </g>
      </g>
     </g>
     <g id="xtick_32">
      <g id="line2d_36">
       <g>
        <use xlink:href="#m6e00c7c66b" x="626.542824" y="86.74" style="fill: #262626; stroke: #262626"/>
       </g>
      </g>
     </g>
     <g id="xtick_33">
      <g id="line2d_37">
       <g>
        <use xlink:href="#m6e00c7c66b" x="638.442471" y="86.74" style="fill: #262626; stroke: #262626"/>
       </g>
      </g>
     </g>
     <g id="xtick_34">
      <g id="line2d_38">
       <g>
        <use xlink:href="#m6e00c7c66b" x="648.503479" y="86.74" style="fill: #262626; stroke: #262626"/>
       </g>
      </g>
     </g>
     <g id="xtick_35">
      <g id="line2d_39">
       <g>
        <use xlink:href="#m6e00c7c66b" x="657.218721" y="86.74" style="fill: #262626; stroke: #262626"/>
       </g>
      </g>
     </g>
     <g id="xtick_36">
      <g id="line2d_40">
       <g>
        <use xlink:href="#m6e00c7c66b" x="664.906109" y="86.74" style="fill: #262626; stroke: #262626"/>
       </g>
      </g>
     </g>
     <g id="text_5">
      <!-- Optical Energy per MAC (J) -->
      <g style="fill: #262626" transform="translate(214.829497 35.948125)scale(0.26 -0.26)">
       <defs>
        <path id="DejaVuSans-4f" d="M 2522 4238 
Q 1834 4238 1429 3725 
Q 1025 3213 1025 2328 
Q 1025 1447 1429 934 
Q 1834 422 2522 422 
Q 3209 422 3611 934 
Q 4013 1447 4013 2328 
Q 4013 3213 3611 3725 
Q 3209 4238 2522 4238 
z
M 2522 4750 
Q 3503 4750 4090 4092 
Q 4678 3434 4678 2328 
Q 4678 1225 4090 567 
Q 3503 -91 2522 -91 
Q 1538 -91 948 565 
Q 359 1222 359 2328 
Q 359 3434 948 4092 
Q 1538 4750 2522 4750 
z
" transform="scale(0.015625)"/>
        <path id="DejaVuSans-70" d="M 1159 525 
L 1159 -1331 
L 581 -1331 
L 581 3500 
L 1159 3500 
L 1159 2969 
Q 1341 3281 1617 3432 
Q 1894 3584 2278 3584 
Q 2916 3584 3314 3078 
Q 3713 2572 3713 1747 
Q 3713 922 3314 415 
Q 2916 -91 2278 -91 
Q 1894 -91 1617 61 
Q 1341 213 1159 525 
z
M 3116 1747 
Q 3116 2381 2855 2742 
Q 2594 3103 2138 3103 
Q 1681 3103 1420 2742 
Q 1159 2381 1159 1747 
Q 1159 1113 1420 752 
Q 1681 391 2138 391 
Q 2594 391 2855 752 
Q 3116 1113 3116 1747 
z
" transform="scale(0.015625)"/>
        <path id="DejaVuSans-74" d="M 1172 4494 
L 1172 3500 
L 2356 3500 
L 2356 3053 
L 1172 3053 
L 1172 1153 
Q 1172 725 1289 603 
Q 1406 481 1766 481 
L 2356 481 
L 2356 0 
L 1766 0 
Q 1100 0 847 248 
Q 594 497 594 1153 
L 594 3053 
L 172 3053 
L 172 3500 
L 594 3500 
L 594 4494 
L 1172 4494 
z
" transform="scale(0.015625)"/>
        <path id="DejaVuSans-69" d="M 603 3500 
L 1178 3500 
L 1178 0 
L 603 0 
L 603 3500 
z
M 603 4863 
L 1178 4863 
L 1178 4134 
L 603 4134 
L 603 4863 
z
" transform="scale(0.015625)"/>
        <path id="DejaVuSans-63" d="M 3122 3366 
L 3122 2828 
Q 2878 2963 2633 3030 
Q 2388 3097 2138 3097 
Q 1578 3097 1268 2742 
Q 959 2388 959 1747 
Q 959 1106 1268 751 
Q 1578 397 2138 397 
Q 2388 397 2633 464 
Q 2878 531 3122 666 
L 3122 134 
Q 2881 22 2623 -34 
Q 2366 -91 2075 -91 
Q 1284 -91 818 406 
Q 353 903 353 1747 
Q 353 2603 823 3093 
Q 1294 3584 2113 3584 
Q 2378 3584 2631 3529 
Q 2884 3475 3122 3366 
z
" transform="scale(0.015625)"/>
        <path id="DejaVuSans-61" d="M 2194 1759 
Q 1497 1759 1228 1600 
Q 959 1441 959 1056 
Q 959 750 1161 570 
Q 1363 391 1709 391 
Q 2188 391 2477 730 
Q 2766 1069 2766 1631 
L 2766 1759 
L 2194 1759 
z
M 3341 1997 
L 3341 0 
L 2766 0 
L 2766 531 
Q 2569 213 2275 61 
Q 1981 -91 1556 -91 
Q 1019 -91 701 211 
Q 384 513 384 1019 
Q 384 1609 779 1909 
Q 1175 2209 1959 2209 
L 2766 2209 
L 2766 2266 
Q 2766 2663 2505 2880 
Q 2244 3097 1772 3097 
Q 1472 3097 1187 3025 
Q 903 2953 641 2809 
L 641 3341 
Q 956 3463 1253 3523 
Q 1550 3584 1831 3584 
Q 2591 3584 2966 3190 
Q 3341 2797 3341 1997 
z
" transform="scale(0.015625)"/>
        <path id="DejaVuSans-6c" d="M 603 4863 
L 1178 4863 
L 1178 0 
L 603 0 
L 603 4863 
z
" transform="scale(0.015625)"/>
        <path id="DejaVuSans-20" transform="scale(0.015625)"/>
        <path id="DejaVuSans-45" d="M 628 4666 
L 3578 4666 
L 3578 4134 
L 1259 4134 
L 1259 2753 
L 3481 2753 
L 3481 2222 
L 1259 2222 
L 1259 531 
L 3634 531 
L 3634 0 
L 628 0 
L 628 4666 
z
" transform="scale(0.015625)"/>
        <path id="DejaVuSans-6e" d="M 3513 2113 
L 3513 0 
L 2938 0 
L 2938 2094 
Q 2938 2591 2744 2837 
Q 2550 3084 2163 3084 
Q 1697 3084 1428 2787 
Q 1159 2491 1159 1978 
L 1159 0 
L 581 0 
L 581 3500 
L 1159 3500 
L 1159 2956 
Q 1366 3272 1645 3428 
Q 1925 3584 2291 3584 
Q 2894 3584 3203 3211 
Q 3513 2838 3513 2113 
z
" transform="scale(0.015625)"/>
        <path id="DejaVuSans-65" d="M 3597 1894 
L 3597 1613 
L 953 1613 
Q 991 1019 1311 708 
Q 1631 397 2203 397 
Q 2534 397 2845 478 
Q 3156 559 3463 722 
L 3463 178 
Q 3153 47 2828 -22 
Q 2503 -91 2169 -91 
Q 1331 -91 842 396 
Q 353 884 353 1716 
Q 353 2575 817 3079 
Q 1281 3584 2069 3584 
Q 2775 3584 3186 3129 
Q 3597 2675 3597 1894 
z
M 3022 2063 
Q 3016 2534 2758 2815 
Q 2500 3097 2075 3097 
Q 1594 3097 1305 2825 
Q 1016 2553 972 2059 
L 3022 2063 
z
" transform="scale(0.015625)"/>
        <path id="DejaVuSans-72" d="M 2631 2963 
Q 2534 3019 2420 3045 
Q 2306 3072 2169 3072 
Q 1681 3072 1420 2755 
Q 1159 2438 1159 1844 
L 1159 0 
L 581 0 
L 581 3500 
L 1159 3500 
L 1159 2956 
Q 1341 3275 1631 3429 
Q 1922 3584 2338 3584 
Q 2397 3584 2469 3576 
Q 2541 3569 2628 3553 
L 2631 2963 
z
" transform="scale(0.015625)"/>
        <path id="DejaVuSans-67" d="M 2906 1791 
Q 2906 2416 2648 2759 
Q 2391 3103 1925 3103 
Q 1463 3103 1205 2759 
Q 947 2416 947 1791 
Q 947 1169 1205 825 
Q 1463 481 1925 481 
Q 2391 481 2648 825 
Q 2906 1169 2906 1791 
z
M 3481 434 
Q 3481 -459 3084 -895 
Q 2688 -1331 1869 -1331 
Q 1566 -1331 1297 -1286 
Q 1028 -1241 775 -1147 
L 775 -588 
Q 1028 -725 1275 -790 
Q 1522 -856 1778 -856 
Q 2344 -856 2625 -561 
Q 2906 -266 2906 331 
L 2906 616 
Q 2728 306 2450 153 
Q 2172 0 1784 0 
Q 1141 0 747 490 
Q 353 981 353 1791 
Q 353 2603 747 3093 
Q 1141 3584 1784 3584 
Q 2172 3584 2450 3431 
Q 2728 3278 2906 2969 
L 2906 3500 
L 3481 3500 
L 3481 434 
z
" transform="scale(0.015625)"/>
        <path id="DejaVuSans-79" d="M 2059 -325 
Q 1816 -950 1584 -1140 
Q 1353 -1331 966 -1331 
L 506 -1331 
L 506 -850 
L 844 -850 
Q 1081 -850 1212 -737 
Q 1344 -625 1503 -206 
L 1606 56 
L 191 3500 
L 800 3500 
L 1894 763 
L 2988 3500 
L 3597 3500 
L 2059 -325 
z
" transform="scale(0.015625)"/>
        <path id="DejaVuSans-4d" d="M 628 4666 
L 1569 4666 
L 2759 1491 
L 3956 4666 
L 4897 4666 
L 4897 0 
L 4281 0 
L 4281 4097 
L 3078 897 
L 2444 897 
L 1241 4097 
L 1241 0 
L 628 0 
L 628 4666 
z
" transform="scale(0.015625)"/>
        <path id="DejaVuSans-41" d="M 2188 4044 
L 1331 1722 
L 3047 1722 
L 2188 4044 
z
M 1831 4666 
L 2547 4666 
L 4325 0 
L 3669 0 
L 3244 1197 
L 1141 1197 
L 716 0 
L 50 0 
L 1831 4666 
z
" transform="scale(0.015625)"/>
        <path id="DejaVuSans-43" d="M 4122 4306 
L 4122 3641 
Q 3803 3938 3442 4084 
Q 3081 4231 2675 4231 
Q 1875 4231 1450 3742 
Q 1025 3253 1025 2328 
Q 1025 1406 1450 917 
Q 1875 428 2675 428 
Q 3081 428 3442 575 
Q 3803 722 4122 1019 
L 4122 359 
Q 3791 134 3420 21 
Q 3050 -91 2638 -91 
Q 1578 -91 968 557 
Q 359 1206 359 2328 
Q 359 3453 968 4101 
Q 1578 4750 2638 4750 
Q 3056 4750 3426 4639 
Q 3797 4528 4122 4306 
z
" transform="scale(0.015625)"/>
        <path id="DejaVuSans-28" d="M 1984 4856 
Q 1566 4138 1362 3434 
Q 1159 2731 1159 2009 
Q 1159 1288 1364 580 
Q 1569 -128 1984 -844 
L 1484 -844 
Q 1016 -109 783 600 
Q 550 1309 550 2009 
Q 550 2706 781 3412 
Q 1013 4119 1484 4856 
L 1984 4856 
z
" transform="scale(0.015625)"/>
        <path id="DejaVuSans-4a" d="M 628 4666 
L 1259 4666 
L 1259 325 
Q 1259 -519 939 -900 
Q 619 -1281 -91 -1281 
L -331 -1281 
L -331 -750 
L -134 -750 
Q 284 -750 456 -515 
Q 628 -281 628 325 
L 628 4666 
z
" transform="scale(0.015625)"/>
        <path id="DejaVuSans-29" d="M 513 4856 
L 1013 4856 
Q 1481 4119 1714 3412 
Q 1947 2706 1947 2009 
Q 1947 1309 1714 600 
Q 1481 -109 1013 -844 
L 513 -844 
Q 928 -128 1133 580 
Q 1338 1288 1338 2009 
Q 1338 2731 1133 3434 
Q 928 4138 513 4856 
z
" transform="scale(0.015625)"/>
       </defs>
       <use xlink:href="#DejaVuSans-4f"/>
       <use xlink:href="#DejaVuSans-70" x="78.710938"/>
       <use xlink:href="#DejaVuSans-74" x="142.1875"/>
       <use xlink:href="#DejaVuSans-69" x="181.396484"/>
       <use xlink:href="#DejaVuSans-63" x="209.179688"/>
       <use xlink:href="#DejaVuSans-61" x="264.160156"/>
       <use xlink:href="#DejaVuSans-6c" x="325.439453"/>
       <use xlink:href="#DejaVuSans-20" x="353.222656"/>
       <use xlink:href="#DejaVuSans-45" x="385.009766"/>
       <use xlink:href="#DejaVuSans-6e" x="448.193359"/>
       <use xlink:href="#DejaVuSans-65" x="511.572266"/>
       <use xlink:href="#DejaVuSans-72" x="573.095703"/>
       <use xlink:href="#DejaVuSans-67" x="612.458984"/>
       <use xlink:href="#DejaVuSans-79" x="675.935547"/>
       <use xlink:href="#DejaVuSans-20" x="735.115234"/>
       <use xlink:href="#DejaVuSans-70" x="766.902344"/>
       <use xlink:href="#DejaVuSans-65" x="830.378906"/>
       <use xlink:href="#DejaVuSans-72" x="891.902344"/>
       <use xlink:href="#DejaVuSans-20" x="933.015625"/>
       <use xlink:href="#DejaVuSans-4d" x="964.802734"/>
       <use xlink:href="#DejaVuSans-41" x="1051.082031"/>
       <use xlink:href="#DejaVuSans-43" x="1117.740234"/>
       <use xlink:href="#DejaVuSans-20" x="1187.564453"/>
       <use xlink:href="#DejaVuSans-28" x="1219.351562"/>
       <use xlink:href="#DejaVuSans-4a" x="1258.365234"/>
       <use xlink:href="#DejaVuSans-29" x="1287.857422"/>
      </g>
     </g>
    </g>
    <g id="matplotlib.axis_2"/>
    <g id="patch_4">
     <path d="M 86.76 86.74 
L 687.894618 86.74 
" style="fill: none; stroke: #ffffff; stroke-width: 1.25; stroke-linejoin: miter; stroke-linecap: square"/>
    </g>
   </g>
   <g id="matplotlib.axis_3">
    <g id="xtick_37">
     <g id="line2d_41">
      <path d="M 86.76 499.86 
L 86.76 86.74 
" clip-path="url(#p1f49949a5b)" style="fill: none; stroke: #cccccc; stroke-linecap: round"/>
     </g>
     <g id="text_6">
      <!-- $\mathdefault{10^{-2}}$ -->
      <g style="fill: #262626" transform="translate(60.91 526.076563)scale(0.22 -0.22)">
       <use xlink:href="#DejaVuSans-31" transform="translate(0 0.765625)"/>
       <use xlink:href="#DejaVuSans-30" transform="translate(63.623047 0.765625)"/>
       <use xlink:href="#DejaVuSans-2212" transform="translate(128.203125 39.046875)scale(0.7)"/>
       <use xlink:href="#DejaVuSans-32" transform="translate(186.855469 39.046875)scale(0.7)"/>
      </g>
     </g>
    </g>
    <g id="xtick_38">
     <g id="line2d_42">
      <path d="M 237.043655 499.86 
L 237.043655 86.74 
" clip-path="url(#p1f49949a5b)" style="fill: none; stroke: #cccccc; stroke-linecap: round"/>
     </g>
     <g id="text_7">
      <!-- $\mathdefault{10^{-1}}$ -->
      <g style="fill: #262626" transform="translate(211.193655 526.076563)scale(0.22 -0.22)">
       <use xlink:href="#DejaVuSans-31" transform="translate(0 0.684375)"/>
       <use xlink:href="#DejaVuSans-30" transform="translate(63.623047 0.684375)"/>
       <use xlink:href="#DejaVuSans-2212" transform="translate(128.203125 38.965625)scale(0.7)"/>
       <use xlink:href="#DejaVuSans-31" transform="translate(186.855469 38.965625)scale(0.7)"/>
      </g>
     </g>
    </g>
    <g id="xtick_39">
     <g id="line2d_43">
      <path d="M 387.327309 499.86 
L 387.327309 86.74 
" clip-path="url(#p1f49949a5b)" style="fill: none; stroke: #cccccc; stroke-linecap: round"/>
     </g>
     <g id="text_8">
      <!-- $\mathdefault{10^{0}}$ -->
      <g style="fill: #262626" transform="translate(367.967309 526.076563)scale(0.22 -0.22)">
       <use xlink:href="#DejaVuSans-31" transform="translate(0 0.765625)"/>
       <use xlink:href="#DejaVuSans-30" transform="translate(63.623047 0.765625)"/>
       <use xlink:href="#DejaVuSans-30" transform="translate(128.203125 39.046875)scale(0.7)"/>
      </g>
     </g>
    </g>
    <g id="xtick_40">
     <g id="line2d_44">
      <path d="M 537.610964 499.86 
L 537.610964 86.74 
" clip-path="url(#p1f49949a5b)" style="fill: none; stroke: #cccccc; stroke-linecap: round"/>
     </g>
     <g id="text_9">
      <!-- $\mathdefault{10^{1}}$ -->
      <g style="fill: #262626" transform="translate(518.250964 526.076563)scale(0.22 -0.22)">
       <use xlink:href="#DejaVuSans-31" transform="translate(0 0.684375)"/>
       <use xlink:href="#DejaVuSans-30" transform="translate(63.623047 0.684375)"/>
       <use xlink:href="#DejaVuSans-31" transform="translate(128.203125 38.965625)scale(0.7)"/>
      </g>
     </g>
    </g>
    <g id="xtick_41">
     <g id="line2d_45">
      <path d="M 687.894618 499.86 
L 687.894618 86.74 
" clip-path="url(#p1f49949a5b)" style="fill: none; stroke: #cccccc; stroke-linecap: round"/>
     </g>
     <g id="text_10">
      <!-- $\mathdefault{10^{2}}$ -->
      <g style="fill: #262626" transform="translate(668.534618 526.076563)scale(0.22 -0.22)">
       <use xlink:href="#DejaVuSans-31" transform="translate(0 0.765625)"/>
       <use xlink:href="#DejaVuSans-30" transform="translate(63.623047 0.765625)"/>
       <use xlink:href="#DejaVuSans-32" transform="translate(128.203125 39.046875)scale(0.7)"/>
      </g>
     </g>
    </g>
    <g id="xtick_42"/>
    <g id="xtick_43"/>
    <g id="xtick_44"/>
    <g id="xtick_45"/>
    <g id="xtick_46"/>
    <g id="xtick_47"/>
    <g id="xtick_48"/>
    <g id="xtick_49"/>
    <g id="xtick_50"/>
    <g id="xtick_51"/>
    <g id="xtick_52"/>
    <g id="xtick_53"/>
    <g id="xtick_54"/>
    <g id="xtick_55"/>
    <g id="xtick_56"/>
    <g id="xtick_57"/>
    <g id="xtick_58"/>
    <g id="xtick_59"/>
    <g id="xtick_60"/>
    <g id="xtick_61"/>
    <g id="xtick_62"/>
    <g id="xtick_63"/>
    <g id="xtick_64"/>
    <g id="xtick_65"/>
    <g id="xtick_66"/>
    <g id="xtick_67"/>
    <g id="xtick_68"/>
    <g id="xtick_69"/>
    <g id="xtick_70"/>
    <g id="xtick_71"/>
    <g id="xtick_72"/>
    <g id="xtick_73"/>
    <g id="text_11">
     <!-- Number of photons per MAC -->
     <g style="fill: #262626" transform="translate(202.983247 554.407812)scale(0.26 -0.26)">
      <defs>
       <path id="DejaVuSans-4e" d="M 628 4666 
L 1478 4666 
L 3547 763 
L 3547 4666 
L 4159 4666 
L 4159 0 
L 3309 0 
L 1241 3903 
L 1241 0 
L 628 0 
L 628 4666 
z
" transform="scale(0.015625)"/>
       <path id="DejaVuSans-75" d="M 544 1381 
L 544 3500 
L 1119 3500 
L 1119 1403 
Q 1119 906 1312 657 
Q 1506 409 1894 409 
Q 2359 409 2629 706 
Q 2900 1003 2900 1516 
L 2900 3500 
L 3475 3500 
L 3475 0 
L 2900 0 
L 2900 538 
Q 2691 219 2414 64 
Q 2138 -91 1772 -91 
Q 1169 -91 856 284 
Q 544 659 544 1381 
z
M 1991 3584 
L 1991 3584 
z
" transform="scale(0.015625)"/>
       <path id="DejaVuSans-6d" d="M 3328 2828 
Q 3544 3216 3844 3400 
Q 4144 3584 4550 3584 
Q 5097 3584 5394 3201 
Q 5691 2819 5691 2113 
L 5691 0 
L 5113 0 
L 5113 2094 
Q 5113 2597 4934 2840 
Q 4756 3084 4391 3084 
Q 3944 3084 3684 2787 
Q 3425 2491 3425 1978 
L 3425 0 
L 2847 0 
L 2847 2094 
Q 2847 2600 2669 2842 
Q 2491 3084 2119 3084 
Q 1678 3084 1418 2786 
Q 1159 2488 1159 1978 
L 1159 0 
L 581 0 
L 581 3500 
L 1159 3500 
L 1159 2956 
Q 1356 3278 1631 3431 
Q 1906 3584 2284 3584 
Q 2666 3584 2933 3390 
Q 3200 3197 3328 2828 
z
" transform="scale(0.015625)"/>
       <path id="DejaVuSans-62" d="M 3116 1747 
Q 3116 2381 2855 2742 
Q 2594 3103 2138 3103 
Q 1681 3103 1420 2742 
Q 1159 2381 1159 1747 
Q 1159 1113 1420 752 
Q 1681 391 2138 391 
Q 2594 391 2855 752 
Q 3116 1113 3116 1747 
z
M 1159 2969 
Q 1341 3281 1617 3432 
Q 1894 3584 2278 3584 
Q 2916 3584 3314 3078 
Q 3713 2572 3713 1747 
Q 3713 922 3314 415 
Q 2916 -91 2278 -91 
Q 1894 -91 1617 61 
Q 1341 213 1159 525 
L 1159 0 
L 581 0 
L 581 4863 
L 1159 4863 
L 1159 2969 
z
" transform="scale(0.015625)"/>
       <path id="DejaVuSans-6f" d="M 1959 3097 
Q 1497 3097 1228 2736 
Q 959 2375 959 1747 
Q 959 1119 1226 758 
Q 1494 397 1959 397 
Q 2419 397 2687 759 
Q 2956 1122 2956 1747 
Q 2956 2369 2687 2733 
Q 2419 3097 1959 3097 
z
M 1959 3584 
Q 2709 3584 3137 3096 
Q 3566 2609 3566 1747 
Q 3566 888 3137 398 
Q 2709 -91 1959 -91 
Q 1206 -91 779 398 
Q 353 888 353 1747 
Q 353 2609 779 3096 
Q 1206 3584 1959 3584 
z
" transform="scale(0.015625)"/>
       <path id="DejaVuSans-66" d="M 2375 4863 
L 2375 4384 
L 1825 4384 
Q 1516 4384 1395 4259 
Q 1275 4134 1275 3809 
L 1275 3500 
L 2222 3500 
L 2222 3053 
L 1275 3053 
L 1275 0 
L 697 0 
L 697 3053 
L 147 3053 
L 147 3500 
L 697 3500 
L 697 3744 
Q 697 4328 969 4595 
Q 1241 4863 1831 4863 
L 2375 4863 
z
" transform="scale(0.015625)"/>
       <path id="DejaVuSans-68" d="M 3513 2113 
L 3513 0 
L 2938 0 
L 2938 2094 
Q 2938 2591 2744 2837 
Q 2550 3084 2163 3084 
Q 1697 3084 1428 2787 
Q 1159 2491 1159 1978 
L 1159 0 
L 581 0 
L 581 4863 
L 1159 4863 
L 1159 2956 
Q 1366 3272 1645 3428 
Q 1925 3584 2291 3584 
Q 2894 3584 3203 3211 
Q 3513 2838 3513 2113 
z
" transform="scale(0.015625)"/>
       <path id="DejaVuSans-73" d="M 2834 3397 
L 2834 2853 
Q 2591 2978 2328 3040 
Q 2066 3103 1784 3103 
Q 1356 3103 1142 2972 
Q 928 2841 928 2578 
Q 928 2378 1081 2264 
Q 1234 2150 1697 2047 
L 1894 2003 
Q 2506 1872 2764 1633 
Q 3022 1394 3022 966 
Q 3022 478 2636 193 
Q 2250 -91 1575 -91 
Q 1294 -91 989 -36 
Q 684 19 347 128 
L 347 722 
Q 666 556 975 473 
Q 1284 391 1588 391 
Q 1994 391 2212 530 
Q 2431 669 2431 922 
Q 2431 1156 2273 1281 
Q 2116 1406 1581 1522 
L 1381 1569 
Q 847 1681 609 1914 
Q 372 2147 372 2553 
Q 372 3047 722 3315 
Q 1072 3584 1716 3584 
Q 2034 3584 2315 3537 
Q 2597 3491 2834 3397 
z
" transform="scale(0.015625)"/>
      </defs>
      <use xlink:href="#DejaVuSans-4e"/>
      <use xlink:href="#DejaVuSans-75" x="74.804688"/>
      <use xlink:href="#DejaVuSans-6d" x="138.183594"/>
      <use xlink:href="#DejaVuSans-62" x="235.595703"/>
      <use xlink:href="#DejaVuSans-65" x="299.072266"/>
      <use xlink:href="#DejaVuSans-72" x="360.595703"/>
      <use xlink:href="#DejaVuSans-20" x="401.708984"/>
      <use xlink:href="#DejaVuSans-6f" x="433.496094"/>
      <use xlink:href="#DejaVuSans-66" x="494.677734"/>
      <use xlink:href="#DejaVuSans-20" x="529.882812"/>
      <use xlink:href="#DejaVuSans-70" x="561.669922"/>
      <use xlink:href="#DejaVuSans-68" x="625.146484"/>
      <use xlink:href="#DejaVuSans-6f" x="688.525391"/>
      <use xlink:href="#DejaVuSans-74" x="749.707031"/>
      <use xlink:href="#DejaVuSans-6f" x="788.916016"/>
      <use xlink:href="#DejaVuSans-6e" x="850.097656"/>
      <use xlink:href="#DejaVuSans-73" x="913.476562"/>
      <use xlink:href="#DejaVuSans-20" x="965.576172"/>
      <use xlink:href="#DejaVuSans-70" x="997.363281"/>
      <use xlink:href="#DejaVuSans-65" x="1060.839844"/>
      <use xlink:href="#DejaVuSans-72" x="1122.363281"/>
      <use xlink:href="#DejaVuSans-20" x="1163.476562"/>
      <use xlink:href="#DejaVuSans-4d" x="1195.263672"/>
      <use xlink:href="#DejaVuSans-41" x="1281.542969"/>
      <use xlink:href="#DejaVuSans-43" x="1348.201172"/>
     </g>
    </g>
   </g>
   <g id="matplotlib.axis_4">
    <g id="ytick_1">
     <g id="line2d_46">
      <path d="M 86.76 436.897861 
L 687.894618 436.897861 
" clip-path="url(#p1f49949a5b)" style="fill: none; stroke: #cccccc; stroke-linecap: round"/>
     </g>
     <g id="text_12">
      <!-- 0.2 -->
      <g style="fill: #262626" transform="translate(42.273125 445.256142)scale(0.22 -0.22)">
       <defs>
        <path id="DejaVuSans-2e" d="M 684 794 
L 1344 794 
L 1344 0 
L 684 0 
L 684 794 
z
" transform="scale(0.015625)"/>
       </defs>
       <use xlink:href="#DejaVuSans-30"/>
       <use xlink:href="#DejaVuSans-2e" x="63.623047"/>
       <use xlink:href="#DejaVuSans-32" x="95.410156"/>
      </g>
     </g>
    </g>
    <g id="ytick_2">
     <g id="line2d_47">
      <path d="M 86.76 354.052941 
L 687.894618 354.052941 
" clip-path="url(#p1f49949a5b)" style="fill: none; stroke: #cccccc; stroke-linecap: round"/>
     </g>
     <g id="text_13">
      <!-- 0.4 -->
      <g style="fill: #262626" transform="translate(42.273125 362.411222)scale(0.22 -0.22)">
       <defs>
        <path id="DejaVuSans-34" d="M 2419 4116 
L 825 1625 
L 2419 1625 
L 2419 4116 
z
M 2253 4666 
L 3047 4666 
L 3047 1625 
L 3713 1625 
L 3713 1100 
L 3047 1100 
L 3047 0 
L 2419 0 
L 2419 1100 
L 313 1100 
L 313 1709 
L 2253 4666 
z
" transform="scale(0.015625)"/>
       </defs>
       <use xlink:href="#DejaVuSans-30"/>
       <use xlink:href="#DejaVuSans-2e" x="63.623047"/>
       <use xlink:href="#DejaVuSans-34" x="95.410156"/>
      </g>
     </g>
    </g>
    <g id="ytick_3">
     <g id="line2d_48">
      <path d="M 86.76 271.208021 
L 687.894618 271.208021 
" clip-path="url(#p1f49949a5b)" style="fill: none; stroke: #cccccc; stroke-linecap: round"/>
     </g>
     <g id="text_14">
      <!-- 0.6 -->
      <g style="fill: #262626" transform="translate(42.273125 279.566303)scale(0.22 -0.22)">
       <defs>
        <path id="DejaVuSans-36" d="M 2113 2584 
Q 1688 2584 1439 2293 
Q 1191 2003 1191 1497 
Q 1191 994 1439 701 
Q 1688 409 2113 409 
Q 2538 409 2786 701 
Q 3034 994 3034 1497 
Q 3034 2003 2786 2293 
Q 2538 2584 2113 2584 
z
M 3366 4563 
L 3366 3988 
Q 3128 4100 2886 4159 
Q 2644 4219 2406 4219 
Q 1781 4219 1451 3797 
Q 1122 3375 1075 2522 
Q 1259 2794 1537 2939 
Q 1816 3084 2150 3084 
Q 2853 3084 3261 2657 
Q 3669 2231 3669 1497 
Q 3669 778 3244 343 
Q 2819 -91 2113 -91 
Q 1303 -91 875 529 
Q 447 1150 447 2328 
Q 447 3434 972 4092 
Q 1497 4750 2381 4750 
Q 2619 4750 2861 4703 
Q 3103 4656 3366 4563 
z
" transform="scale(0.015625)"/>
       </defs>
       <use xlink:href="#DejaVuSans-30"/>
       <use xlink:href="#DejaVuSans-2e" x="63.623047"/>
       <use xlink:href="#DejaVuSans-36" x="95.410156"/>
      </g>
     </g>
    </g>
    <g id="ytick_4">
     <g id="line2d_49">
      <path d="M 86.76 188.363102 
L 687.894618 188.363102 
" clip-path="url(#p1f49949a5b)" style="fill: none; stroke: #cccccc; stroke-linecap: round"/>
     </g>
     <g id="text_15">
      <!-- 0.8 -->
      <g style="fill: #262626" transform="translate(42.273125 196.721383)scale(0.22 -0.22)">
       <use xlink:href="#DejaVuSans-30"/>
       <use xlink:href="#DejaVuSans-2e" x="63.623047"/>
       <use xlink:href="#DejaVuSans-38" x="95.410156"/>
      </g>
     </g>
    </g>
    <g id="ytick_5">
     <g id="line2d_50">
      <path d="M 86.76 105.518182 
L 687.894618 105.518182 
" clip-path="url(#p1f49949a5b)" style="fill: none; stroke: #cccccc; stroke-linecap: round"/>
     </g>
     <g id="text_16">
      <!-- 1.0 -->
      <g style="fill: #262626" transform="translate(42.273125 113.876463)scale(0.22 -0.22)">
       <use xlink:href="#DejaVuSans-31"/>
       <use xlink:href="#DejaVuSans-2e" x="63.623047"/>
       <use xlink:href="#DejaVuSans-30" x="95.410156"/>
      </g>
     </g>
    </g>
    <g id="text_17">
     <!-- Accuracy -->
     <g style="fill: #262626" transform="translate(32.865938 352.653125)rotate(-90)scale(0.26 -0.26)">
      <use xlink:href="#DejaVuSans-41"/>
      <use xlink:href="#DejaVuSans-63" x="66.658203"/>
      <use xlink:href="#DejaVuSans-63" x="121.638672"/>
      <use xlink:href="#DejaVuSans-75" x="176.619141"/>
      <use xlink:href="#DejaVuSans-72" x="239.998047"/>
      <use xlink:href="#DejaVuSans-61" x="281.111328"/>
      <use xlink:href="#DejaVuSans-63" x="342.390625"/>
      <use xlink:href="#DejaVuSans-79" x="397.371094"/>
     </g>
    </g>
   </g>
   <g id="line2d_51">
    <path d="M 86.76 480.713619 
L 94.350084 480.529519 
L 101.940167 475.742923 
L 109.530251 479.14877 
L 117.120334 476.571373 
L 124.710418 480.253369 
L 132.300501 475.834973 
L 139.890585 477.215722 
L 147.480669 481.081818 
L 155.070752 478.320321 
L 162.660836 476.571373 
L 170.250919 475.006524 
L 177.841003 476.479323 
L 185.431086 473.993975 
L 193.02117 473.717825 
L 200.611253 477.491872 
L 208.201337 475.927023 
L 215.791421 476.295223 
L 223.381504 469.667629 
L 230.971588 469.667629 
L 238.561671 468.65508 
L 246.151755 466.537932 
L 253.741838 459.542139 
L 261.331922 451.073547 
L 268.922006 440.119608 
L 276.512089 431.006667 
L 284.102173 412.412585 
L 291.692256 383.969162 
L 299.28234 364.270481 
L 306.872423 328.002816 
L 314.462507 287.961105 
L 322.05259 258.044884 
L 329.642674 217.082674 
L 337.232758 185.325455 
L 344.822841 164.798324 
L 352.412925 144.455294 
L 360.003008 135.066203 
L 367.593092 128.990909 
L 375.183175 122.915615 
L 382.773259 118.497219 
L 390.363343 116.288021 
L 397.953426 114.723173 
L 405.54351 112.329875 
L 413.133593 112.421925 
L 420.723677 111.225276 
L 428.31376 111.593476 
L 435.903844 111.409376 
L 443.493927 110.120677 
L 451.084011 110.949127 
L 458.674095 110.580927 
L 466.264178 110.396827 
L 473.854262 110.304777 
L 481.444345 109.844528 
L 489.034429 109.660428 
L 496.624512 110.120677 
L 504.214596 110.212727 
L 511.80468 109.568378 
L 519.394763 110.120677 
L 526.984847 109.476328 
L 534.57493 109.936578 
L 542.165014 109.568378 
L 549.755097 109.844528 
L 557.345181 109.568378 
L 564.935264 109.476328 
L 572.525348 109.384278 
L 580.115432 109.568378 
L 587.705515 109.660428 
L 595.295599 109.660428 
L 602.885682 109.568378 
L 610.475766 109.476328 
L 618.065849 109.568378 
L 625.655933 109.752478 
L 633.246017 109.384278 
L 640.8361 109.384278 
L 648.426184 109.476328 
L 656.016267 109.476328 
L 663.606351 109.384278 
L 671.196434 109.292228 
L 678.786518 109.476328 
L 686.376601 109.384278 
L 693.966685 109.568378 
L 701.556769 109.476328 
L 709.146852 109.660428 
L 716.736936 109.660428 
L 721 109.660428 
" clip-path="url(#p1f49949a5b)" style="fill: none; stroke: #4c72b0; stroke-width: 5; stroke-linecap: round"/>
   </g>
   <g id="line2d_52">
    <defs>
     <path id="m28449d3485" d="M 0 -7 
L -1.571598 -2.163119 
L -6.657396 -2.163119 
L -2.542899 0.826238 
L -4.114497 5.663119 
L -0 2.673762 
L 4.114497 5.663119 
L 2.542899 0.826238 
L 6.657396 -2.163119 
L 1.571598 -2.163119 
z
" style="stroke: #dd8452; stroke-linejoin: bevel"/>
    </defs>
    <g clip-path="url(#p1f49949a5b)">
     <use xlink:href="#m28449d3485" x="514.177782" y="109.660428" style="fill: #dd8452; stroke: #dd8452; stroke-linejoin: bevel"/>
     <use xlink:href="#m28449d3485" x="423.472483" y="329.199465" style="fill: #dd8452; stroke: #dd8452; stroke-linejoin: bevel"/>
     <use xlink:href="#m28449d3485" x="519.548183" y="188.363102" style="fill: #dd8452; stroke: #dd8452; stroke-linejoin: bevel"/>
     <use xlink:href="#m28449d3485" x="526.668609" y="105.518182" style="fill: #dd8452; stroke: #dd8452; stroke-linejoin: bevel"/>
     <use xlink:href="#m28449d3485" x="476.977266" y="163.509626" style="fill: #dd8452; stroke: #dd8452; stroke-linejoin: bevel"/>
     <use xlink:href="#m28449d3485" x="498.625614" y="105.518182" style="fill: #dd8452; stroke: #dd8452; stroke-linejoin: bevel"/>
     <use xlink:href="#m28449d3485" x="384.318883" y="337.483957" style="fill: #dd8452; stroke: #dd8452; stroke-linejoin: bevel"/>
     <use xlink:href="#m28449d3485" x="456.564032" y="109.660428" style="fill: #dd8452; stroke: #dd8452; stroke-linejoin: bevel"/>
     <use xlink:href="#m28449d3485" x="478.220968" y="105.518182" style="fill: #dd8452; stroke: #dd8452; stroke-linejoin: bevel"/>
     <use xlink:href="#m28449d3485" x="438.25356" y="188.363102" style="fill: #dd8452; stroke: #dd8452; stroke-linejoin: bevel"/>
     <use xlink:href="#m28449d3485" x="448.102088" y="105.518182" style="fill: #dd8452; stroke: #dd8452; stroke-linejoin: bevel"/>
     <use xlink:href="#m28449d3485" x="364.578003" y="362.337433" style="fill: #dd8452; stroke: #dd8452; stroke-linejoin: bevel"/>
     <use xlink:href="#m28449d3485" x="393.159162" y="221.50107" style="fill: #dd8452; stroke: #dd8452; stroke-linejoin: bevel"/>
     <use xlink:href="#m28449d3485" x="526.178671" y="105.518182" style="fill: #dd8452; stroke: #dd8452; stroke-linejoin: bevel"/>
     <use xlink:href="#m28449d3485" x="521.340677" y="209.074332" style="fill: #dd8452; stroke: #dd8452; stroke-linejoin: bevel"/>
     <use xlink:href="#m28449d3485" x="560.067317" y="122.087166" style="fill: #dd8452; stroke: #dd8452; stroke-linejoin: bevel"/>
     <use xlink:href="#m28449d3485" x="484.170482" y="221.50107" style="fill: #dd8452; stroke: #dd8452; stroke-linejoin: bevel"/>
     <use xlink:href="#m28449d3485" x="445.482128" y="163.509626" style="fill: #dd8452; stroke: #dd8452; stroke-linejoin: bevel"/>
     <use xlink:href="#m28449d3485" x="395.89604" y="122.087166" style="fill: #dd8452; stroke: #dd8452; stroke-linejoin: bevel"/>
     <use xlink:href="#m28449d3485" x="360.092628" y="358.195187" style="fill: #dd8452; stroke: #dd8452; stroke-linejoin: bevel"/>
     <use xlink:href="#m28449d3485" x="305.336543" y="441.040107" style="fill: #dd8452; stroke: #dd8452; stroke-linejoin: bevel"/>
     <use xlink:href="#m28449d3485" x="355.531159" y="146.940642" style="fill: #dd8452; stroke: #dd8452; stroke-linejoin: bevel"/>
     <use xlink:href="#m28449d3485" x="336.029891" y="238.070054" style="fill: #dd8452; stroke: #dd8452; stroke-linejoin: bevel"/>
     <use xlink:href="#m28449d3485" x="406.865971" y="117.94492" style="fill: #dd8452; stroke: #dd8452; stroke-linejoin: bevel"/>
     <use xlink:href="#m28449d3485" x="372.846656" y="465.893583" style="fill: #dd8452; stroke: #dd8452; stroke-linejoin: bevel"/>
     <use xlink:href="#m28449d3485" x="279.611384" y="461.751337" style="fill: #dd8452; stroke: #dd8452; stroke-linejoin: bevel"/>
     <use xlink:href="#m28449d3485" x="388.173946" y="134.513904" style="fill: #dd8452; stroke: #dd8452; stroke-linejoin: bevel"/>
     <use xlink:href="#m28449d3485" x="366.043852" y="134.513904" style="fill: #dd8452; stroke: #dd8452; stroke-linejoin: bevel"/>
     <use xlink:href="#m28449d3485" x="424.685303" y="117.94492" style="fill: #dd8452; stroke: #dd8452; stroke-linejoin: bevel"/>
     <use xlink:href="#m28449d3485" x="328.570085" y="246.354545" style="fill: #dd8452; stroke: #dd8452; stroke-linejoin: bevel"/>
     <use xlink:href="#m28449d3485" x="396.687114" y="122.087166" style="fill: #dd8452; stroke: #dd8452; stroke-linejoin: bevel"/>
     <use xlink:href="#m28449d3485" x="355.404406" y="155.225134" style="fill: #dd8452; stroke: #dd8452; stroke-linejoin: bevel"/>
     <use xlink:href="#m28449d3485" x="398.680496" y="134.513904" style="fill: #dd8452; stroke: #dd8452; stroke-linejoin: bevel"/>
     <use xlink:href="#m28449d3485" x="413.995548" y="134.513904" style="fill: #dd8452; stroke: #dd8452; stroke-linejoin: bevel"/>
    </g>
   </g>
   <g id="patch_5">
    <path d="M 86.76 499.86 
L 86.76 86.74 
" style="fill: none; stroke: #ffffff; stroke-width: 1.25; stroke-linejoin: miter; stroke-linecap: square"/>
   </g>
   <g id="patch_6">
    <path d="M 687.894618 499.86 
L 687.894618 86.74 
" style="fill: none; stroke: #ffffff; stroke-width: 1.25; stroke-linejoin: miter; stroke-linecap: square"/>
   </g>
   <g id="patch_7">
    <path d="M 86.76 499.86 
L 687.894618 499.86 
" style="fill: none; stroke: #ffffff; stroke-width: 1.25; stroke-linejoin: miter; stroke-linecap: square"/>
   </g>
   <g id="patch_8">
    <path d="M 86.76 86.74 
L 687.894618 86.74 
" style="fill: none; stroke: #ffffff; stroke-width: 1.25; stroke-linejoin: miter; stroke-linecap: square"/>
   </g>
   <g id="legend_1">
    <g id="patch_9">
     <path d="M 436.267431 486.86 
L 669.694618 486.86 
Q 674.894618 486.86 674.894618 481.66 
L 674.894618 407.93375 
Q 674.894618 402.73375 669.694618 402.73375 
L 436.267431 402.73375 
Q 431.067431 402.73375 431.067431 407.93375 
L 431.067431 481.66 
Q 431.067431 486.86 436.267431 486.86 
z
" style="fill: #f4f4f9; opacity: 0.8; stroke: #cccccc; stroke-linejoin: miter"/>
    </g>
    <g id="line2d_53">
     <path d="M 441.467431 423.789687 
L 467.467431 423.789687 
L 493.467431 423.789687 
" style="fill: none; stroke: #4c72b0; stroke-width: 5; stroke-linecap: round"/>
    </g>
    <g id="text_18">
     <!-- Simulation -->
     <g style="fill: #262626" transform="translate(514.267431 432.889687)scale(0.26 -0.26)">
      <defs>
       <path id="DejaVuSans-53" d="M 3425 4513 
L 3425 3897 
Q 3066 4069 2747 4153 
Q 2428 4238 2131 4238 
Q 1616 4238 1336 4038 
Q 1056 3838 1056 3469 
Q 1056 3159 1242 3001 
Q 1428 2844 1947 2747 
L 2328 2669 
Q 3034 2534 3370 2195 
Q 3706 1856 3706 1288 
Q 3706 609 3251 259 
Q 2797 -91 1919 -91 
Q 1588 -91 1214 -16 
Q 841 59 441 206 
L 441 856 
Q 825 641 1194 531 
Q 1563 422 1919 422 
Q 2459 422 2753 634 
Q 3047 847 3047 1241 
Q 3047 1584 2836 1778 
Q 2625 1972 2144 2069 
L 1759 2144 
Q 1053 2284 737 2584 
Q 422 2884 422 3419 
Q 422 4038 858 4394 
Q 1294 4750 2059 4750 
Q 2388 4750 2728 4690 
Q 3069 4631 3425 4513 
z
" transform="scale(0.015625)"/>
      </defs>
      <use xlink:href="#DejaVuSans-53"/>
      <use xlink:href="#DejaVuSans-69" x="63.476562"/>
      <use xlink:href="#DejaVuSans-6d" x="91.259766"/>
      <use xlink:href="#DejaVuSans-75" x="188.671875"/>
      <use xlink:href="#DejaVuSans-6c" x="252.050781"/>
      <use xlink:href="#DejaVuSans-61" x="279.833984"/>
      <use xlink:href="#DejaVuSans-74" x="341.113281"/>
      <use xlink:href="#DejaVuSans-69" x="380.322266"/>
      <use xlink:href="#DejaVuSans-6f" x="408.105469"/>
      <use xlink:href="#DejaVuSans-6e" x="469.287109"/>
     </g>
    </g>
    <g id="line2d_54">
     <g>
      <use xlink:href="#m28449d3485" x="467.467431" y="461.952812" style="fill: #dd8452; stroke: #dd8452; stroke-linejoin: bevel"/>
     </g>
    </g>
    <g id="text_19">
     <!-- Experiment -->
     <g style="fill: #262626" transform="translate(514.267431 471.052812)scale(0.26 -0.26)">
      <defs>
       <path id="DejaVuSans-78" d="M 3513 3500 
L 2247 1797 
L 3578 0 
L 2900 0 
L 1881 1375 
L 863 0 
L 184 0 
L 1544 1831 
L 300 3500 
L 978 3500 
L 1906 2253 
L 2834 3500 
L 3513 3500 
z
" transform="scale(0.015625)"/>
      </defs>
      <use xlink:href="#DejaVuSans-45"/>
      <use xlink:href="#DejaVuSans-78" x="63.183594"/>
      <use xlink:href="#DejaVuSans-70" x="122.363281"/>
      <use xlink:href="#DejaVuSans-65" x="185.839844"/>
      <use xlink:href="#DejaVuSans-72" x="247.363281"/>
      <use xlink:href="#DejaVuSans-69" x="288.476562"/>
      <use xlink:href="#DejaVuSans-6d" x="316.259766"/>
      <use xlink:href="#DejaVuSans-65" x="413.671875"/>
      <use xlink:href="#DejaVuSans-6e" x="475.195312"/>
      <use xlink:href="#DejaVuSans-74" x="538.574219"/>
     </g>
    </g>
   </g>
  </g>
 </g>
 <defs>
  <clipPath id="p1b01161374">
   <rect x="86.76" y="86.74" width="601.134618" height="0"/>
  </clipPath>
  <clipPath id="p1f49949a5b">
   <rect x="86.76" y="86.74" width="601.134618" height="413.12"/>
  </clipPath>
 </defs>
</svg>
